<?xml version="1.0" standalone="no"?><!DOCTYPE svg PUBLIC "-//W3C//DTD SVG 1.1//EN" "http://www.w3.org/Graphics/SVG/1.1/DTD/svg11.dtd"><svg t="1584078345865" class="icon" viewBox="0 0 1025 1024" version="1.1" xmlns="http://www.w3.org/2000/svg" p-id="10008" xmlns:xlink="http://www.w3.org/1999/xlink" width="200.1953125" height="200"><defs><style type="text/css"></style></defs><path d="M457.823667 1023.998978c-14.696272-2.604519-29.450785-4.91783-44.077576-7.862602-62.996867-12.683364-121.486659-36.53479-175.494921-71.364229-1.25679-0.810272-2.466579-1.693091-4.445768-3.05819 11.466423-14.204795 22.713163-28.137797 33.968077-42.081016 113.980658 69.851993 235.465273 90.413286 364.415019 56.940773 110.744679-28.745756 198.418571-92.025656 262.808125-186.503586 127.418096-186.9593 97.576991-439.33811-70.588697-593.777196C658.112096 23.571459 407.797284 16.791944 234.48693 152.98918 137.378936 229.302914 79.177286 329.182999 62.354689 451.74968c-16.815445 122.511505 12.948005 233.933624 85.574133 335.57628-13.411893 11.831199-26.891224 23.721661-40.841596 36.025944-5.866043-8.373493-13.900305-19.05621-21.11612-30.265144-48.889141-75.945894-77.18327-158.852157-81.453291-249.22355-7.633724-161.573159 48.06252-298.17502 166.217152-408.241236C243.786156 67.574444 330.824501 25.916445 429.435534 9.279812c18.259221-3.080669 36.83315-4.291479 55.255856-6.411674 2.758808-0.317774 5.489006-0.888949 8.232487-1.34262 15.261316 0 30.521611 0 45.781906 0 2.738372 0.460823 5.461418 1.180157 8.218182 1.346707 81.381767 4.901482 157.611715 27.414376 227.488232 69.312493 125.719896 75.381871 205.995075 184.673577 240.399452 327.335619 3.553753 14.737143 6.148054 29.707252 9.187852 44.569052 0 46.290752 0 92.582527 0 138.873279-0.542566 2.192741-1.260877 4.359938-1.602152 6.583333-5.438939 35.491552-14.132249 70.150353-26.804373 103.758764-31.956191 84.756708-82.637535 156.365143-152.172777 214.340979-66.827523 55.717701-143.07382 92.147248-228.550883 108.915691-14.138379 2.773113-28.390177 4.973007-42.588841 7.438563C534.128205 1023.998978 495.975936 1023.998978 457.823667 1023.998978zM524.928092 392.520118c48.79105-48.802289 96.763653-96.785111 144.338784-144.371481 12.963332 13.058357 25.779527 25.967535 39.410081 39.697202-37.996959 37.907042-76.766383 76.584506-116.635244 116.359363 54.36282 0 107.323757 0 160.823172 0 0 18.429858 0 36.076011 0 54.495651-66.584339 0-133.079783 0-200.189317 0 0 36.96496 0 73.16665 0 110.175547 66.455594 0 132.955125 0 200.092248 0 0 18.404314 0 36.021857 0 54.45478-66.404505 0-132.898928 0-200.44374 0 0 61.356909 0 121.920916 0 182.955964-18.70063 0-36.347805 0-54.788903 0 0-60.810256 0-121.198517 0-182.362309-67.278128 0-133.770506 0-200.832017 0 0-18.399205 0-36.027987 0-54.422083 66.507705 0 133.007236 0 200.164794 0 0-36.928176 0-73.104321 0-110.327792-66.573099 0-133.249398 0-200.328279 0 0-18.495252 0-35.956463 0-54.522218 53.04881 0 106.18345 0 160.118143 0-39.645091-39.665526-78.338904-78.379775-116.653636-116.714943 14.063789-14.028027 26.944357-26.876919 40.390991-40.289834C428.098023 295.463214 476.176891 343.654478 524.928092 392.520118z" p-id="10009" fill="#1296db"></path></svg>