<?xml version="1.0" standalone="no"?><!DOCTYPE svg PUBLIC "-//W3C//DTD SVG 1.1//EN" "http://www.w3.org/Graphics/SVG/1.1/DTD/svg11.dtd"><svg t="1587286916910" class="icon" viewBox="0 0 1024 1024" version="1.1" xmlns="http://www.w3.org/2000/svg" p-id="12174" xmlns:xlink="http://www.w3.org/1999/xlink" width="200" height="200"><defs><style type="text/css"></style></defs><path d="M512 0C226.743 0 0 226.743 0 512s226.743 512 512 512 512-226.743 512-512S797.257 0 512 0z m0 950.857C270.629 950.857 73.143 753.371 73.143 512S270.629 73.143 512 73.143 950.857 270.629 950.857 512 753.371 950.857 512 950.857z" p-id="12175" fill="#10c689"></path><path d="M731.429 475.429H548.57V292.57C548.571 270.63 533.943 256 512 256s-36.571 14.629-36.571 36.571V475.43H292.57C270.63 475.429 256 490.057 256 512s14.629 36.571 36.571 36.571H475.43V731.43C475.429 753.37 490.057 768 512 768s36.571-14.629 36.571-36.571V548.57H731.43C753.37 548.571 768 533.943 768 512s-14.629-36.571-36.571-36.571z" p-id="12176" fill="#10c689"></path></svg>