<?xml version="1.0" standalone="no"?><!DOCTYPE svg PUBLIC "-//W3C//DTD SVG 1.1//EN" "http://www.w3.org/Graphics/SVG/1.1/DTD/svg11.dtd"><svg t="1587366668313" class="icon" viewBox="0 0 1024 1024" version="1.1" xmlns="http://www.w3.org/2000/svg" p-id="6604" xmlns:xlink="http://www.w3.org/1999/xlink" width="200" height="200"><defs><style type="text/css"></style></defs><path d="M464.896 97.792c94.208 0 184.832 37.376 251.904 104.448 67.072 66.56 104.448 157.184 104.448 251.904 0 83.968-29.184 160.768-77.312 221.696l164.352 166.4c15.36 15.36 14.848 39.936-0.512 55.296-15.36 14.848-39.936 14.848-55.296-0.512l-163.84-165.888c-63.488 51.2-142.336 78.848-223.232 78.848-98.304 0-187.392-39.936-251.904-104.448s-104.448-153.6-104.448-251.904S148.992 266.24 213.504 201.728c66.56-66.56 157.184-103.936 251.392-103.936z m195.072 161.28c-49.664-49.664-118.784-80.896-195.072-80.896s-144.896 30.72-195.072 80.896C218.624 310.784 189.44 380.928 189.44 454.144c0 76.288 30.72 144.896 80.896 195.072s118.784 80.896 195.072 80.896 144.896-30.72 195.072-80.896 80.896-118.784 80.896-195.072c-0.512-73.216-29.696-143.36-81.408-195.072z" fill="#10c689" p-id="6605"></path></svg>