<?xml version="1.0" standalone="no"?><!DOCTYPE svg PUBLIC "-//W3C//DTD SVG 1.1//EN" "http://www.w3.org/Graphics/SVG/1.1/DTD/svg11.dtd"><svg t="1587282411724" class="icon" viewBox="0 0 1024 1024" version="1.1" xmlns="http://www.w3.org/2000/svg" p-id="9212" xmlns:xlink="http://www.w3.org/1999/xlink" width="200" height="200"><defs><style type="text/css"></style></defs><path d="M512 1.266526h-1.428211C228.890947 1.670737 0.835368 230.346105 1.266526 512.026947v1.401264C1.697684 795.082105 230.346105 1023.137684 512 1022.733474h1.428211c281.653895-0.404211 509.736421-229.052632 509.305263-510.760421v-1.401264C1022.329263 228.890947 793.680842 0.862316 512 1.266526z m204.288 544.821895H307.712c-20.453053 0-34.061474-13.635368-34.061474-34.061474 0-20.453053 13.608421-34.061474 34.061474-34.061473h408.576c20.453053 0 34.061474 13.608421 34.061474 34.061473 0 20.426105-13.608421 34.061474-34.061474 34.061474z" fill="#10c689" p-id="9213"></path></svg>