<?xml version="1.0" standalone="no"?><!DOCTYPE svg PUBLIC "-//W3C//DTD SVG 1.1//EN" "http://www.w3.org/Graphics/SVG/1.1/DTD/svg11.dtd"><svg t="1586002144673" class="icon" viewBox="0 0 1024 1024" version="1.1" xmlns="http://www.w3.org/2000/svg" p-id="871" xmlns:xlink="http://www.w3.org/1999/xlink" width="200" height="200"><defs><style type="text/css"></style></defs><path d="M512 0C228.693333 0 0 228.693333 0 512c0 283.306667 228.693333 512 512 512 283.306667 0 512-228.693333 512-512C1024 228.693333 795.306667 0 512 0zM512 955.733333C266.24 955.733333 68.266667 757.76 68.266667 512 68.266667 266.24 266.24 68.266667 512 68.266667s443.733333 197.973333 443.733333 443.733333C955.733333 757.76 757.76 955.733333 512 955.733333zM728.746667 279.893333 459.093333 641.706667 274.773333 443.733333l-85.333333 102.4 285.013333 245.76 356.693333-424.96L728.746667 279.893333z" p-id="872" fill="#15c185"></path></svg>