<?xml version="1.0" standalone="no"?><!DOCTYPE svg PUBLIC "-//W3C//DTD SVG 1.1//EN" "http://www.w3.org/Graphics/SVG/1.1/DTD/svg11.dtd"><svg t="1587353715249" class="icon" viewBox="0 0 1024 1024" version="1.1" xmlns="http://www.w3.org/2000/svg" p-id="2101" xmlns:xlink="http://www.w3.org/1999/xlink" width="200" height="200"><defs><style type="text/css"></style></defs><path d="M501.845333 740.693333l209.92-207.189333a289.109333 289.109333 0 0 0 86.442667-206.250667c0-161.28-132.437333-292.096-296.362667-292.096C338.005333 35.157333 205.653333 165.973333 205.653333 327.168c0 78.421333 31.402667 151.893333 86.528 206.336l209.749334 207.274667z m0-740.693333c182.954667 0 331.264 146.432 331.264 327.168 0 87.04-34.986667 170.410667-97.024 231.424L501.845333 789.930667 267.605333 558.592A324.437333 324.437333 0 0 1 170.666667 327.168C170.666667 146.517333 318.976 0 501.845333 0z m0 456.533333a122.453333 122.453333 0 0 0 122.026667-122.88v-0.170666a122.453333 122.453333 0 0 0-122.026667-122.794667 122.453333 122.453333 0 0 0-122.026666 122.88 122.453333 122.453333 0 0 0 122.026666 122.88z m0 34.986667a157.44 157.44 0 0 1-156.842666-157.866667v-0.170666a157.44 157.44 0 0 1 156.842666-157.866667 157.44 157.44 0 0 1 156.928 157.866667A157.44 157.44 0 0 1 501.930667 491.52z m189.610667 211.029333l-9.728 33.706667c74.752 21.930667 116.48 54.784 116.48 80.042667 0 48.810667-130.816 103.68-296.362667 103.68-165.461333 0-296.277333-54.869333-296.277333-103.68 0-25.514667 42.154667-58.538667 117.76-80.469334l-9.728-33.621333C227.242667 727.210667 170.666667 769.024 170.666667 816.298667c0 76.629333 148.309333 138.752 331.178666 138.752 182.954667 0 331.264-62.122667 331.264-138.752 0-47.104-55.978667-88.661333-141.653333-113.664z m0 0l-9.728 33.706667c74.752 21.930667 116.48 54.784 116.48 80.042667 0 48.810667-130.816 103.68-296.362667 103.68-165.461333 0-296.277333-54.869333-296.277333-103.68 0-25.514667 42.154667-58.538667 117.76-80.469334l-9.728-33.621333C227.242667 727.210667 170.666667 769.024 170.666667 816.298667c0 76.629333 148.309333 138.752 331.178666 138.752 182.954667 0 331.264-62.122667 331.264-138.752 0-47.104-55.978667-88.661333-141.653333-113.664z" fill="#10c689" p-id="2102"></path></svg>