<?xml version="1.0" standalone="no"?><!DOCTYPE svg PUBLIC "-//W3C//DTD SVG 1.1//EN" "http://www.w3.org/Graphics/SVG/1.1/DTD/svg11.dtd"><svg t="1587256927319" class="icon" viewBox="0 0 1024 1024" version="1.1" xmlns="http://www.w3.org/2000/svg" p-id="2941" xmlns:xlink="http://www.w3.org/1999/xlink" width="200" height="200"><defs><style type="text/css"></style></defs><path d="M824.888889 398.222222V312.888889c0-170.666667-142.222222-312.888889-312.888889-312.888889S199.111111 142.222222 199.111111 312.888889V398.222222C136.533333 398.222222 85.333333 449.422222 85.333333 512v398.222222c0 62.577778 51.2 113.777778 113.777778 113.777778h625.777778c62.577778 0 113.777778-51.2 113.777778-113.777778V512c0-62.577778-51.2-113.777778-113.777778-113.777778zM256 312.888889C256 170.666667 375.466667 56.888889 512 56.888889 654.222222 56.888889 768 170.666667 768 312.888889V398.222222H256V312.888889zM881.777778 910.222222c0 34.133333-22.755556 56.888889-56.888889 56.888889H199.111111c-34.133333 0-56.888889-22.755556-56.888889-56.888889V512c0-34.133333 22.755556-56.888889 56.888889-56.888889h625.777778c34.133333 0 56.888889 22.755556 56.888889 56.888889v398.222222z" p-id="2942" fill="#10c689"></path><path d="M512 512C432.355556 512 369.777778 574.577778 369.777778 654.222222c0 68.266667 51.2 125.155556 113.777778 136.533334v91.022222c0 17.066667 11.377778 28.444444 28.444444 28.444444s28.444444-11.377778 28.444444-28.444444v-91.022222c62.577778-11.377778 113.777778-68.266667 113.777778-136.533334C654.222222 574.577778 591.644444 512 512 512z m0 227.555556c-45.511111 0-85.333333-39.822222-85.333333-85.333334S466.488889 568.888889 512 568.888889s85.333333 39.822222 85.333333 85.333333S557.511111 739.555556 512 739.555556z" p-id="2943" fill="#10c689"></path></svg>