<?xml version="1.0" encoding="UTF-8"?>
<svg width="66px" height="42px" viewBox="0 0 66 42" version="1.1" xmlns="http://www.w3.org/2000/svg" xmlns:xlink="http://www.w3.org/1999/xlink">
    <!-- Generator: Sketch 58 (84663) - https://sketch.com -->
    <title>开关关（自定义）</title>
    <desc>Created with Sketch.</desc>
    <g id="设置页面" stroke="none" stroke-width="1" fill="none" fill-rule="evenodd">
        <g id="iPhone-8" transform="translate(-586.000000, -782.000000)" fill="#BBBBBB" fill-rule="nonzero">
            <g id="开关关（自定义）" transform="translate(586.000000, 782.000000)">
                <path d="M19.9672146,40.8418271 L46.0217118,40.8418271 C56.9757265,40.8418271 65.8556372,31.9618519 65.8556372,21.0078372 C65.8556372,10.0538225 56.975662,1.17391181 46.0217118,1.17391181 L19.9672146,1.17391181 C9.01326439,1.17391181 0.133289218,10.0538225 0.133289218,21.0078372 C0.133289218,31.9618519 9.01326439,40.8418271 19.9672146,40.8418271 Z M19.9447205,3.0498222 C29.8853375,3.0498222 37.9444367,11.1084702 37.9444367,21.0495385 C37.9444367,30.9906067 29.8852731,39.0492547 19.9447205,39.0492547 C10.0034589,39.0492547 1.94493976,30.9904778 1.94493976,21.0495385 C1.94493976,11.1084058 10.0035234,3.0498222 19.9447205,3.0498222 Z" id="形状"></path>
            </g>
        </g>
    </g>
</svg>