<?xml version="1.0" encoding="UTF-8"?>
<svg width="66px" height="42px" viewBox="0 0 66 42" version="1.1" xmlns="http://www.w3.org/2000/svg" xmlns:xlink="http://www.w3.org/1999/xlink">
    <!-- Generator: Sketch 58 (84663) - https://sketch.com -->
    <title>开关开（自定义）</title>
    <desc>Created with Sketch.</desc>
    <g id="设置页面" stroke="none" stroke-width="1" fill="none" fill-rule="evenodd">
        <g id="iPhone-8" transform="translate(-586.000000, -663.000000)" fill="#6467FD" fill-rule="nonzero">
            <g id="开关开（自定义）" transform="translate(586.000000, 663.000000)">
                <path d="M65.8557016,21.0080306 C65.8557016,10.0540804 56.9759843,1.17404072 46.0219051,1.17404072 L19.9676658,1.17404072 C9.01352221,1.17404072 0.133869296,10.0540804 0.133869296,21.0080306 C0.133869296,31.9619808 9.01358666,40.8418271 19.9676658,40.8418271 L46.0219051,40.8418271 C56.9760487,40.8418271 65.8557016,31.9619808 65.8557016,21.0080306 Z M64.0442444,21.0497318 C64.0442444,30.9907356 55.9856608,39.0494481 46.0444637,39.0494481 C36.1038467,39.0494481 28.0450053,30.9908645 28.0450053,21.0497963 C28.0450053,11.1085347 36.1039112,3.05001556 46.0443993,3.05001556 C55.9855319,3.05001556 64.0442444,11.1086636 64.0442444,21.0497963 L64.0442444,21.0497318 Z" id="形状"></path>
            </g>
        </g>
    </g>
</svg>