<?xml version="1.0" standalone="no"?><!DOCTYPE svg PUBLIC "-//W3C//DTD SVG 1.1//EN" "http://www.w3.org/Graphics/SVG/1.1/DTD/svg11.dtd"><svg t="1587353983552" class="icon" viewBox="0 0 1024 1024" version="1.1" xmlns="http://www.w3.org/2000/svg" p-id="3747" xmlns:xlink="http://www.w3.org/1999/xlink" width="200" height="200"><defs><style type="text/css"></style></defs><path d="M303.56 578.24C428.15 561 524.11 454.08 524.11 324.74c0-141.42-114.6-256-256-256s-256 114.61-256 256c0 129.34 96 236.23 220.61 253.5v123.27H66.85v70.79h165.81v165.87h70.85V772.35h165.81v-70.79H303.56zM83 324.74a185.1 185.1 0 1 1 185.08 185.13C165.84 509.87 83 427 83 324.74zM499.83 715c0.06 141.43 114.72 256 256.2 256S1012 856.28 1012 714.86c-0.06-129.34-96.07-236.17-220.66-253.44l-0.11-259.78 67.71 67.76L909 219.3 791.07 101.49l-35.48-35.43-153.13 153.29 50.11 50 67.75-67.82 0.12 259.79C595.73 478.75 499.78 585.68 499.83 715z m441.17-0.14c0.1 102.3-82.78 185.14-185.09 185.24S570.8 817.27 570.74 715a185.13 185.13 0 0 1 185.07-185.16c102.25-0.11 185.12 82.77 185.18 185z m0 0" fill="#10c689" p-id="3748"></path></svg>