<?xml version="1.0" standalone="no"?><!DOCTYPE svg PUBLIC "-//W3C//DTD SVG 1.1//EN" "http://www.w3.org/Graphics/SVG/1.1/DTD/svg11.dtd"><svg t="1586616278505" class="icon" viewBox="0 0 1024 1024" version="1.1" xmlns="http://www.w3.org/2000/svg" p-id="3002" xmlns:xlink="http://www.w3.org/1999/xlink" width="200" height="200"><defs><style type="text/css"></style></defs><path d="M502 79.7c240.6 0 436.3 195.7 436.3 436.3S742.6 952.3 502 952.3 65.7 756.6 65.7 516 261.4 79.7 502 79.7M502 40C239.1 40 26 253.1 26 516s213.1 476 476 476 476-213.1 476-476S764.9 40 502 40L502 40z" p-id="3003" fill="#15c185"></path><path d="M501.8 281.9l69.9 139 9.3 18.5 20.5 2.9 154.6 22.1L644.7 571l-15.3 14.6 3.6 20.9 14.9 85.1 7 40.2 3.8 21.6 0.8 4.5-139.5-72-18.2-9.4-18.2 9.4-139.6 72 26.4-151.5 3.6-20.9L358.7 571 247.3 464.4l154.7-22.1 20.5-2.9 9.3-18.5L501.8 281.9M501.8 218.5c-8 0-14.8 4.5-18.1 11L396.5 403l-195.2 27.9c-7.3 1-13.8 6-16.2 13.4-2.5 7.4-0.2 15.2 5.1 20.3l141.2 135L298 790.4c-1.2 7.2 1.6 14.8 8 19.3 3.6 2.6 7.7 3.8 11.8 3.8 3.3 0 6.5-0.8 9.4-2.3l174.6-90 174.5 90c2.9 1.5 6.2 2.3 9.4 2.3 4.1 0 8.2-1.2 11.8-3.8 6.4-4.5 9.3-12.1 8-19.3 0 0-3.2-18.4-7.7-43.8-3.2-18.4-7.1-40.5-10.8-61.8-7.7-44-14.9-85.1-14.9-85.1l141.2-135c5.3-5.1 7.6-12.8 5.1-20.3-2.4-7.4-8.9-12.4-16.2-13.4L607.1 403l-87.2-173.6C516.6 223 509.7 218.5 501.8 218.5L501.8 218.5z" p-id="3004" fill="#15c185"></path></svg>