<?xml version="1.0" standalone="no"?><!DOCTYPE svg PUBLIC "-//W3C//DTD SVG 1.1//EN" "http://www.w3.org/Graphics/SVG/1.1/DTD/svg11.dtd"><svg t="1586616429287" class="icon" viewBox="0 0 1024 1024" version="1.1" xmlns="http://www.w3.org/2000/svg" p-id="7815" xmlns:xlink="http://www.w3.org/1999/xlink" width="200" height="200"><defs><style type="text/css"></style></defs><path d="M553.57691 23.104799c-270.337877-9.734509-493.527889 201.02348-503.145115 471.478639-2.345665 65.561333 8.209827 129.949834 31.314626 191.171687 0.117283 0.234566 0.117283 0.469133 0.234566 0.7037l0.586417 1.759249c0.35185 1.172832 0.820983 2.345665 1.290115 3.401214 0.234566 0.703699 0.586416 1.290116 0.938266 1.993815-1.524682 0.469133-4.33948 1.055549-9.382659 1.055549-12.080174 0-29.555377-3.283931-51.721911-9.851793-6.333295-1.876532-13.135723 0.117283-17.475203 5.04318-4.456763 4.925896-5.629596 11.962891-3.049364 18.061619 4.456763 10.907342 113.53018 265.76383 495.990837 292.269844 0.586416 0.117283 1.055549 0.117283 1.641965 0.234566 4.104914 0.35185 8.209827 0.35185 12.314741 0.469133l5.512312 0.117283c1.993815 0.117283 3.870347 0.117283 5.864162 0.117283h3.283931l0.938266 0.117284h1.172833c0.586416 0 1.172832 0 1.759248-0.117284h4.808613c262.714466 0 476.052686-207.004925 485.435346-471.361356C1031.506128 260.134234 821.451838 32.839308 553.57691 23.104799zM341.646089 639.545527c-23.456649 0-42.456534-18.999885-42.456535-42.456534 0-23.456649 18.999885-42.456534 42.456535-42.456534 23.456649 0 42.456534 18.999885 42.456534 42.456534 0.117283 23.456649-18.882602 42.456534-42.456534 42.456534z m0-170.060703c-23.456649 0-42.456534-18.999885-42.456535-42.456534 0-23.456649 18.999885-42.456534 42.456535-42.456534 23.456649 0 42.456534 18.999885 42.456534 42.456534 0.117283 23.456649-18.882602 42.456534-42.456534 42.456534z m382.695224 170.060703H511.706792c-23.456649 0-42.456534-18.999885-42.456534-42.456534 0-23.456649 18.999885-42.456534 42.456534-42.456534h212.517237c23.456649 0 42.456534 18.999885 42.456535 42.456534 0.117283 23.456649-18.882602 42.456534-42.339251 42.456534z m0-170.060703H511.706792c-23.456649 0-42.456534-18.999885-42.456534-42.456534 0-23.456649 18.999885-42.456534 42.456534-42.456534h212.517237c23.456649 0 42.456534 18.999885 42.456535 42.456534 0.117283 23.456649-18.882602 42.456534-42.339251 42.456534z" fill="#15c185" p-id="7816"></path></svg>