<?xml version="1.0" standalone="no"?><!DOCTYPE svg PUBLIC "-//W3C//DTD SVG 1.1//EN" "http://www.w3.org/Graphics/SVG/1.1/DTD/svg11.dtd"><svg t="1587375878284" class="icon" viewBox="0 0 1024 1024" version="1.1" xmlns="http://www.w3.org/2000/svg" p-id="16279" xmlns:xlink="http://www.w3.org/1999/xlink" width="200" height="200"><defs><style type="text/css"></style></defs><path d="M371.869984 396.060431c8.584516 0 15.544021-6.959505 15.544021-15.544021l0-93.263104c0-8.585539-6.960529-15.544021-15.544021-15.544021-8.581446 0-15.542998 6.959505-15.542998 15.544021l0 93.263104C356.326986 389.100926 363.289562 396.060431 371.869984 396.060431z" p-id="16280" fill="#10c689"></path><path d="M418.503071 349.427344l186.526207 0c8.582469 0 15.541975-6.959505 15.541975-15.542998s-6.959505-15.542998-15.541975-15.542998L418.503071 318.341349c-8.582469 0-15.544021 6.959505-15.544021 15.542998S409.920602 349.427344 418.503071 349.427344z" p-id="16281" fill="#10c689"></path><path d="M651.658272 396.060431c8.584516 0 15.542998-6.959505 15.542998-15.544021l0-93.263104c0-8.585539-6.959505-15.544021-15.542998-15.544021-8.582469 0-15.542998 6.959505-15.542998 15.544021l0 93.263104C636.115274 389.100926 643.076826 396.060431 651.658272 396.060431z" p-id="16282" fill="#10c689"></path><path d="M491.669464 462.786135c-6.072299-6.071276-15.909341-6.071276-21.98164 0-6.070252 6.070252-6.070252 15.912411 0 21.98471l248.699222 248.699222c3.035126 3.036149 7.012717 4.552689 10.989285 4.552689 3.979638 0 7.955182-1.51654 10.990309-4.552689 6.070252-6.068206 6.070252-15.911388 0-21.98471L491.669464 462.786135z" p-id="16283" fill="#10c689"></path><path d="M744.921375 318.341349l-46.63104 0c-8.581446 0-15.542998 6.959505-15.542998 15.542998s6.962575 15.542998 15.542998 15.542998l31.088042 0 0 279.788288c0 8.584516 6.959505 15.544021 15.542998 15.544021 8.585539 0 15.544021-6.960529 15.544021-15.544021L760.465396 333.884346C760.465396 325.299831 753.506914 318.341349 744.921375 318.341349z" p-id="16284" fill="#10c689"></path><path d="M610.578668 723.589023 293.044708 723.589023 293.044708 348.31808l28.863375 0c7.972579 0 14.433734-6.461155 14.433734-14.433734s-6.461155-14.433734-14.433734-14.433734l-43.299155 0c-7.972579 0-14.433734 6.461155-14.433734 14.433734l0 404.136364c0 7.972579 6.461155 14.433734 14.433734 14.433734l331.968717 0c7.972579 0 14.433734-6.461155 14.433734-14.433734S618.551246 723.589023 610.578668 723.589023z" p-id="16285" fill="#10c689"></path><path d="M511.999488 102.677521c-226.062666 0-409.322479 183.260837-409.322479 409.322479 0 226.061642 183.259814 409.322479 409.322479 409.322479s409.322479-183.26186 409.322479-409.322479C921.321968 285.938358 738.062154 102.677521 511.999488 102.677521zM511.999488 894.657166c-211.335243 0-382.656143-171.321924-382.656143-382.657166 0-211.334219 171.3209-382.656143 382.656143-382.656143s382.656143 171.321924 382.656143 382.656143C894.655631 723.335243 723.334731 894.657166 511.999488 894.657166z" p-id="16286" fill="#10c689"></path></svg>