<?xml version="1.0" standalone="no"?><!DOCTYPE svg PUBLIC "-//W3C//DTD SVG 1.1//EN" "http://www.w3.org/Graphics/SVG/1.1/DTD/svg11.dtd"><svg t="1587394368997" class="icon" viewBox="0 0 1024 1024" version="1.1" xmlns="http://www.w3.org/2000/svg" p-id="1179" xmlns:xlink="http://www.w3.org/1999/xlink" width="200" height="200"><defs><style type="text/css"></style></defs><path d="M337.346697 1006.313325a35.738777 35.738777 0 0 1-27.114696-12.059096c-67.384769-69.942759-103.781315-114.963386-155.671972-212.167012C100.988407 683.202627 73.142857 562.611662 73.142857 433.250446 73.142857 194.407251 269.961928 0 511.655454 0s438.512597 194.480337 438.512598 433.250446c0 22.510313-17.028906 40.196988-38.73528 40.196988a39.100707 39.100707 0 0 1-38.735279-40.196988C872.697493 238.697024 710.740174 80.393976 511.655454 80.393976S150.613416 238.697024 150.613416 433.250446c0 115.69424 24.849047 222.618229 72.062237 309.443723 49.551923 92.453073 83.682821 131.773035 143.320534 194.480337a42.389551 42.389551 0 0 1 0 57.079723 41.658697 41.658697 0 0 1-28.64949 12.059096z m315.290557-220.206409a432.300335 432.300335 0 0 1-184.394547-352.85647c0-22.510313 17.101991-40.196988 38.73528-40.196988 21.706374 0 38.735279 17.686675 38.735279 40.196988 0 113.282421 55.837271 220.206409 150.336736 286.12947 31.353651 21.92563 83.828992 39.100707 157.426022 51.305974 22.656484 3.654272 39.393048 23.387339 39.393048 46.336164a34.861751 34.861751 0 0 1-40.6355 34.350154c-94.060952-15.713368-160.568696-37.492827-199.523232-65.265292z m74.400971 235.481265c-123.22204-35.37335-203.762187-82.805795-288.175862-168.82735-108.531868-111.674541-168.096496-260.403397-168.096495-419.510385 0-130.238241 106.850903-236.35829 238.550853-236.35829 131.69995 0 238.623938 106.120049 238.623938 236.35829 0 51.598316 50.428949 97.642138 151.359931 138.131468a39.539219 39.539219 0 0 1 22.656485 49.844265 36.396546 36.396546 0 0 1-49.259582 21.194776c-134.769538-60.076226-202.227393-130.092071-202.227393-209.974449 0-86.021554-72.062237-155.964314-161.153379-155.964313s-161.153379 69.942759-161.15338 155.964313c0 137.400614 51.159803 266.030976 144.928413 362.503747 73.597031 75.497252 144.051388 117.30212 253.314111 148.655771 20.902434 5.627578 32.523018 28.137892 27.114695 49.040325a38.150596 38.150596 0 0 1-36.396545 30.549711 43.85126 43.85126 0 0 1-10.08579-1.607879z" p-id="1180" fill="#10c689"></path></svg>