<?xml version="1.0" standalone="no"?><!DOCTYPE svg PUBLIC "-//W3C//DTD SVG 1.1//EN" "http://www.w3.org/Graphics/SVG/1.1/DTD/svg11.dtd"><svg t="1587268786548" class="icon" viewBox="0 0 1088 1024" version="1.1" xmlns="http://www.w3.org/2000/svg" p-id="6304" xmlns:xlink="http://www.w3.org/1999/xlink" width="212.5" height="200"><defs><style type="text/css"></style></defs><path d="M836.672 1024c-11.776 0-25.536-3.84-37.312-9.6l-254.976-124.864-256.96 124.8c-25.536 13.504-58.88 11.584-82.432-5.76-23.488-17.28-37.248-48-31.36-76.8l52.992-268.992L24.576 478.4c-21.632-21.12-29.44-53.76-21.632-80.704 9.856-28.8 33.408-49.92 64.768-53.76l280.512-49.984L473.792 44.16C487.488 17.28 514.944 0 544.384 0c29.44 0 58.88 17.28 70.592 44.16l125.568 249.792 280.512 48c29.44 3.84 54.912 24.96 62.72 53.76 9.856 28.864 1.984 59.584-19.584 80.768l-202.048 186.304 51.008 268.992c5.888 30.72-7.808 59.52-31.36 76.8-11.776 9.6-27.52 15.424-45.12 15.424z" fill="#999999" p-id="6305"></path></svg>