<?xml version="1.0" standalone="no"?><!DOCTYPE svg PUBLIC "-//W3C//DTD SVG 1.1//EN" "http://www.w3.org/Graphics/SVG/1.1/DTD/svg11.dtd"><svg t="1585206980763" class="icon" viewBox="0 0 1071 1024" version="1.1" xmlns="http://www.w3.org/2000/svg" p-id="2251" xmlns:xlink="http://www.w3.org/1999/xlink" width="35.560546875" height="34"><defs><style type="text/css"></style></defs><path d="M595.741436 18.32575a97.371215 97.371215 0 0 1 23.150006 23.563834l135.589417 195.61877a48.685607 48.685607 0 0 0 27.823824 19.401215l214.411416 55.47725a97.371215 97.371215 0 0 1 54.138395 151.850409l-143.69557 195.910885a48.685607 48.685607 0 0 0-9.420665 29.381764l2.677708 216.504896a97.371215 97.371215 0 0 1-126.533894 94.109279l-219.133919-68.817106a48.685607 48.685607 0 0 0-28.821879-0.121714l-231.402693 70.740188a97.371215 97.371215 0 0 1-125.852295-93.111224v-220.78923a48.685607 48.685607 0 0 0-8.203525-27.069198L26.801427 461.194378a97.371215 97.371215 0 0 1 55.574621-148.150304l208.301371-56.158848a48.685607 48.685607 0 0 0 26.82577-18.573559l142.332373-197.809623a97.371215 97.371215 0 0 1 135.905874-22.176294z m104.1872 535.298254c-37.926088 42.940706-89.16769 64.265002-157.49794 64.265001-68.963163 0-123.564072-21.859838-166.821234-66.090712a48.685607 48.685607 0 0 0-69.620419 68.062479c62.025464 63.437347 141.845517 95.423791 236.465995 95.423791 95.277734 0 173.320763-32.521986 230.453323-97.249501a48.685607 48.685607 0 0 0-73.004068-64.411058z" p-id="2252" fill="#999999"></path></svg>