<?xml version="1.0" standalone="no"?><!DOCTYPE svg PUBLIC "-//W3C//DTD SVG 1.1//EN" "http://www.w3.org/Graphics/SVG/1.1/DTD/svg11.dtd"><svg t="1586616546122" class="icon" viewBox="0 0 1059 1024" version="1.1" xmlns="http://www.w3.org/2000/svg" p-id="11123" xmlns:xlink="http://www.w3.org/1999/xlink" width="206.8359375" height="200"><defs><style type="text/css"></style></defs><path d="M710.142415 684.780186a47.55418 44.383901 90 1 0 88.767802 0 47.55418 44.383901 90 1 0-88.767802 0Z" p-id="11124" fill="#15c185"></path><path d="M317.027864 684.780186a47.55418 44.383901 90 1 0 88.767802 0 47.55418 44.383901 90 1 0-88.767802 0Z" p-id="11125" fill="#15c185"></path><path d="M694.291022 361.411765v129.981424h155.343653l-79.256966-129.981424z" p-id="11126" fill="#15c185"></path><path d="M542.117647 0c-278.98452 0-507.244582 228.260062-507.244582 507.244582s228.260062 507.244582 507.244582 507.244582 507.244582-228.260062 507.244582-507.244582c0-282.154799-228.260062-507.244582-507.244582-507.244582z m31.702786 656.247678c0 15.851393-12.681115 28.532508-25.362229 28.532508h-95.108359c0 53.894737-41.213622 98.278638-91.93808 98.278638S272.643963 738.674923 272.643963 684.780186h-63.405573c-15.851393 0-25.362229-12.681115-25.362229-28.532508V259.962848c-3.170279-15.851393 9.510836-28.532508 22.19195-28.532507h339.219815c15.851393 0 25.362229 12.681115 25.362229 28.532507v396.28483z m329.708979 6.340557c0 12.681115-9.510836 22.19195-19.021672 22.191951h-41.213622c0 53.894737-41.213622 98.278638-91.938081 98.278638-50.724458 0-91.93808-44.383901-91.93808-98.278638h-41.213623c-9.510836 0-19.021672-9.510836-19.021671-22.191951V317.027864c3.170279-12.681115 12.681115-22.19195 22.19195-22.191951h152.173375c6.340557 0 12.681115 3.170279 15.851393 9.510836l110.959752 180.705883c3.170279 3.170279 3.170279 6.340557 3.170279 12.681114v164.854489z" p-id="11127" fill="#15c185"></path></svg>