<?xml version="1.0" standalone="no"?><!DOCTYPE svg PUBLIC "-//W3C//DTD SVG 1.1//EN" "http://www.w3.org/Graphics/SVG/1.1/DTD/svg11.dtd"><svg t="1587353837949" class="icon" viewBox="0 0 1024 1024" version="1.1" xmlns="http://www.w3.org/2000/svg" p-id="2910" xmlns:xlink="http://www.w3.org/1999/xlink" width="200" height="200"><defs><style type="text/css"></style></defs><path d="M512 1024C229.2224 1024 0 794.7776 0 512S229.2224 0 512 0s512 229.2224 512 512-229.2224 512-512 512z m-238.7968-368.2304a1569.7408 1569.7408 0 0 0 131.4816-39.936v153.6H461.824v-46.6944l30.72 49.7664c61.44-33.1776 111.8208-73.728 151.7568-121.6512 36.864 46.08 80.4864 88.4736 130.8672 126.5664l39.936-47.3088a710.8096 710.8096 0 0 1-135.168-129.024c41.7792-70.0416 65.7408-152.9856 70.656-248.832h48.5376V295.1168h-194.1504c6.144-25.1904 12.288-52.224 17.2032-80.4864L563.8144 204.8c-17.2032 108.1344-50.3808 194.1504-98.9184 258.048l35.6352 44.2368c11.0592-13.5168 22.1184-27.648 32.5632-43.6224 20.2752 49.152 45.4656 95.8464 75.5712 139.4688-36.864 46.6944-86.016 85.4016-146.8416 114.8928V209.7152H404.6848v350.208c-25.1904 9.8304-50.3808 18.432-76.1856 26.4192v-325.632H271.36V588.8c0 7.9872-5.5296 14.1312-15.36 17.8176l17.2032 49.152z m313.9584-303.5136h108.1344c-4.3008 75.5712-21.504 141.9264-52.224 198.4512a683.008 683.008 0 0 1-76.1856-149.2992c7.3728-15.9744 14.1312-31.9488 20.2752-49.152z" p-id="2911" fill="#10c689"></path></svg>