<?xml version="1.0" standalone="no"?><!DOCTYPE svg PUBLIC "-//W3C//DTD SVG 1.1//EN" "http://www.w3.org/Graphics/SVG/1.1/DTD/svg11.dtd"><svg t="1587375810911" class="icon" viewBox="0 0 1024 1024" version="1.1" xmlns="http://www.w3.org/2000/svg" p-id="14831" xmlns:xlink="http://www.w3.org/1999/xlink" width="200" height="200"><defs><style type="text/css"></style></defs><path d="M510.976 1009.664c-277.504 0-502.784-229.376-495.616-508.928C22.016 231.424 245.76 15.36 515.584 17.92c95.744 0.512 188.928 29.184 268.288 81.92 3.584 2.56 6.144 6.144 6.656 10.24 1.024 4.096 0 8.704-2.56 12.288-5.12 7.168-14.848 8.704-22.016 4.096-142.336-94.208-324.608-102.4-475.136-21.504C140.8 185.856 47.104 343.04 47.104 513.536c0 256 207.872 463.872 463.872 463.872s463.872-207.872 463.872-463.872c0-68.096-14.848-134.656-43.52-196.096-3.584-7.68-0.512-17.408 7.168-20.992 4.096-2.048 8.192-2.048 12.288-1.024 4.096 1.536 7.68 4.608 9.216 8.192 30.72 65.536 46.592 137.216 46.592 209.92 0.512 273.408-222.208 496.128-495.616 496.128z" fill="#10c689" p-id="14832"></path><path d="M894.976 233.984c0 6.656 3.584 12.288 9.216 15.872 5.632 3.072 12.288 3.072 17.92 0s9.216-9.216 9.216-15.872-3.584-12.288-9.216-15.872c-5.632-3.072-12.288-3.072-17.92 0-5.632 3.584-9.216 9.216-9.216 15.872zM683.008 555.52h-2.048 2.048zM610.816 411.648c0-54.272-43.52-98.816-98.816-98.816-54.272 0-98.816 43.52-98.816 98.816 0 54.272 43.52 98.816 98.816 98.816s100.352-43.52 98.816-98.816z m-58.88 39.936c-10.24 10.24-24.576 16.896-39.936 16.896-14.336 0-29.696-6.656-39.936-16.896-10.24-10.24-16.896-24.576-16.896-39.936s6.656-29.696 16.896-39.936c10.24-10.24 24.576-16.896 39.936-16.896 14.336 0 29.696 6.656 39.936 16.896 10.24 10.24 16.896 24.576 16.896 39.936-0.512 14.336-6.656 29.696-16.896 39.936z" fill="#10c689" p-id="14833"></path><path d="M827.392 488.448c-5.12-58.368-26.624-114.176-61.952-161.28-87.552-116.736-244.224-158.208-377.856-100.352-133.632 58.368-210.432 200.704-184.832 344.064 25.6 143.872 145.92 250.88 291.84 259.584 145.408 8.704 278.016-83.968 320.512-223.744 4.096-14.336 7.68-28.672 9.728-43.52 2.56-15.872 3.584-31.744 3.584-47.616 0-8.704-0.512-18.432-1.024-27.136zM512 261.12c83.456 0 150.528 67.072 151.552 150.528 0 83.456-82.432 185.344-150.528 271.36-69.632-84.992-150.528-188.928-150.528-271.36C362.496 328.192 429.568 261.12 512 261.12z m1.024 487.424c-96.256 0-194.048-30.72-194.048-88.576 0-32.256 32.256-59.392 88.576-75.776 10.24-2.56 20.48 2.56 23.04 12.8s-2.56 20.48-12.8 23.04c-42.496 11.776-61.952 28.16-61.952 39.936 0 20.48 61.952 51.712 158.208 51.712 96.256 0 158.208-30.72 158.208-51.712 0-11.776-23.04-29.696-65.536-40.96-10.24-2.56-15.36-12.8-12.8-23.04s12.8-15.36 23.04-12.8c59.392 15.36 93.696 43.52 93.696 77.312-3.072 57.344-100.864 88.064-197.632 88.064z" fill="#10c689" p-id="14834"></path></svg>