<?xml version="1.0" standalone="no"?><!DOCTYPE svg PUBLIC "-//W3C//DTD SVG 1.1//EN" "http://www.w3.org/Graphics/SVG/1.1/DTD/svg11.dtd"><svg t="1586137173444" class="icon" viewBox="0 0 1024 1024" version="1.1" xmlns="http://www.w3.org/2000/svg" p-id="3237" xmlns:xlink="http://www.w3.org/1999/xlink" width="200" height="200"><defs><style type="text/css"></style></defs><path d="M630.4 915.2c-2.133333 0-4.266667 0-6.4-1.066667l-257.066667-70.4-244.266666 58.666667c-7.466667 2.133333-14.933333 0-21.333334-4.266667-6.4-4.266667-9.6-11.733333-9.6-19.2v-437.333333c0-8.533333 4.266667-16 10.666667-20.266667l100.266667-71.466666c11.733333-7.466667 26.666667-5.333333 35.2 6.4 7.466667 11.733333 5.333333 26.666667-6.4 35.2l-89.6 64v392.533333l219.733333-53.333333c4.266667-1.066667 8.533333-1.066667 12.8 0l256 69.333333 252.8-69.333333V394.666667l-56.533333 17.066666c-12.8 4.266667-26.666667-3.2-30.933334-16s3.2-26.666667 16-30.933333l88.533334-27.733333c7.466667-2.133333 16-1.066667 22.4 3.2 6.4 4.266667 10.666667 11.733333 10.666666 20.266666v452.266667c0 10.666667-7.466667 21.333333-18.133333 23.466667l-277.333333 76.8c-3.2 1.066667-5.333333 2.133333-7.466667 2.133333z" fill="#15c185" p-id="3238"></path><path d="M512 398.933333c-49.066667 0-89.6-40.533333-89.6-89.6 0-49.066667 40.533333-89.6 89.6-89.6 49.066667 0 89.6 40.533333 89.6 89.6 0 49.066667-40.533333 89.6-89.6 89.6z m0-147.2c-32 0-57.6 25.6-57.6 57.6 0 32 25.6 57.6 57.6 57.6 32 0 57.6-25.6 57.6-57.6 0-32-25.6-57.6-57.6-57.6z" fill="#15c185" p-id="3239"></path><path d="M503.466667 652.8c-12.8 0-29.866667 0-101.333334-151.466667-26.666667-55.466667-71.466667-156.8-71.466666-212.266666 0-99.2 81.066667-180.266667 180.266666-180.266667s180.266667 81.066667 180.266667 180.266667c0 52.266667-43.733333 145.066667-80 213.333333-77.866667 150.4-96 150.4-107.733333 150.4z m8.533333-493.866667c-72.533333 0-131.2 58.666667-131.2 131.2 0 62.933333 86.4 238.933333 123.733333 299.733334 40.533333-60.8 137.6-237.866667 137.6-299.733334 0-72.533333-58.666667-131.2-130.133333-131.2z" fill="#15c185" p-id="3240"></path></svg>