<?xml version="1.0" standalone="no"?><!DOCTYPE svg PUBLIC "-//W3C//DTD SVG 1.1//EN" "http://www.w3.org/Graphics/SVG/1.1/DTD/svg11.dtd"><svg t="1587366454034" class="icon" viewBox="0 0 1024 1024" version="1.1" xmlns="http://www.w3.org/2000/svg" p-id="5595" xmlns:xlink="http://www.w3.org/1999/xlink" width="200" height="200"><defs><style type="text/css"></style></defs><path d="M531.456 596.992c-11.264 0-20.48 3.584-26.624 11.264-6.656 7.68-10.24 26.624-10.24 56.832 0 32.256 2.56 54.272 6.656 65.536 4.608 9.216 14.848 14.336 30.208 14.336 11.776 0 20.48-4.096 25.088-12.288 5.12-11.264 7.68-33.792 7.68-67.584 0-29.696-2.048-48.64-6.656-56.32-5.632-7.68-14.336-11.776-26.112-11.776z" fill="#E82100" p-id="5596"></path><path d="M834.56 412.672c-32.256-59.904-75.776-134.656-132.608-175.616 19.968 44.032 24.064 118.784-16.896 155.136C616.448 130.56 445.952 76.8 445.952 76.8c19.968 135.168-73.216 282.624-163.328 392.704-3.072-53.76-6.656-91.136-34.816-142.336-6.144 97.792-80.896 177.664-101.376 275.456-24.576 119.808 12.288 210.944 154.624 303.104 141.312 91.648 327.68 51.2 460.8-34.816 53.76-34.816 99.328-82.432 121.856-142.848 38.912-104.96 2.048-221.184-49.152-315.392zM411.136 777.728h-52.224v-84.992h-53.248v84.992h-51.712V564.224h52.224v92.672h53.248v-92.672h52.224v213.504z m187.904-20.992c-8.704 15.872-31.232 24.064-67.584 24.064s-59.392-8.704-69.632-26.112c-12.8-20.48-18.944-50.176-18.944-89.088 0-40.448 6.144-67.584 17.92-81.92 13.312-14.848 36.864-22.016 70.656-22.016 32.256 0 54.272 7.168 66.048 20.992 12.288 15.36 18.944 43.008 18.944 82.944-0.512 41.472-6.144 71.68-17.408 91.136z m217.6-156.672h-65.024v177.664h-52.224V600.064H632.32v-35.84h183.808v35.84z" fill="#E82100" p-id="5597"></path></svg>