<?xml version="1.0" standalone="no"?><!DOCTYPE svg PUBLIC "-//W3C//DTD SVG 1.1//EN" "http://www.w3.org/Graphics/SVG/1.1/DTD/svg11.dtd"><svg t="1587257077637" class="icon" viewBox="0 0 1302 1024" version="1.1" xmlns="http://www.w3.org/2000/svg" p-id="3748" xmlns:xlink="http://www.w3.org/1999/xlink" width="254.296875" height="200"><defs><style type="text/css"></style></defs><path d="M638.32 92c89.12 0.16 169.44 18.56 246.56 51.68 88.16 38.08 166.08 91.84 237.92 155.04 60.8 53.44 115.68 112.48 166.24 175.36 17.44 21.6 16.32 39.52 2.72 59.52-37.28 55.2-79.84 105.92-125.92 153.6-62.56 64.96-132 121.28-211.04 165.28-67.36 37.44-138.56 63.68-215.2 74.4-94.88 13.28-187.04 2.08-276.8-30.88-94.72-34.56-177.76-88.96-254.08-154.24-73.12-62.56-137.76-133.44-196.48-209.6-16-20.8-16.32-32.8-0.96-54.4 68.32-96.64 149.92-180.48 245.76-250.08 63.36-46.08 131.68-82.72 206.24-106.88 58.56-19.04 118.56-28.48 175.04-28.8z m291.52 164.8c80 146.56 34.24 311.52-70.72 400.32-109.6 92.8-264.48 102.88-382.56 24.16-71.04-47.36-116.64-112.8-135.36-196.32-18.56-83.36-4.48-161.6 37.92-235.52-114.08 63.36-205.12 152-284.48 253.76 36.16 45.28 73.76 88.16 114.4 128.32 36.48 36.16 75.04 69.92 116.8 99.84 75.68 54.24 157.44 94.4 249.92 110.56 58.88 10.4 117.76 10.4 176.48-1.6 86.88-17.6 164.32-56.32 235.52-107.84 84.48-61.28 155.84-136 217.44-220 3.04-4.16 3.04-6.72-0.32-10.56-23.2-25.76-45.76-52.16-69.44-77.44-53.12-56.32-110.88-107.2-176-149.44-9.76-6.08-19.68-12.16-29.6-18.24zM429.52 428.16c1.44 4.96 2.4 12.64 5.92 19.04 6.4 11.68 22.08 16.48 37.28 12.8 14.24-3.52 22.4-14.56 24.48-29.92 2.4-17.92 4.64-36.32 10.08-53.44 20.8-66.24 67.2-102.56 135.68-111.36 19.84-2.56 33.6-17.44 33.28-37.6-0.32-18.4-12-29.92-30.4-29.12-7.04 0.32-14.24 1.44-21.28 2.72-41.12 7.04-79.04 21.76-111.36 48.64-54.72 45.76-76.48 107.04-83.68 178.24z m0 0" p-id="3749" fill="#10c689"></path></svg>