<?xml version="1.0" standalone="no"?><!DOCTYPE svg PUBLIC "-//W3C//DTD SVG 1.1//EN" "http://www.w3.org/Graphics/SVG/1.1/DTD/svg11.dtd"><svg t="1587354008570" class="icon" viewBox="0 0 1024 1024" version="1.1" xmlns="http://www.w3.org/2000/svg" p-id="4543" xmlns:xlink="http://www.w3.org/1999/xlink" width="200" height="200"><defs><style type="text/css"></style></defs><path d="M830.7 64.5h-576c-70.7 0-128 55.3-128 123.6v130.4h-30c-17.4 0-31.5 14.1-31.5 31.5v1c0 17.4 14.1 31.5 31.5 31.5h30v131h-30c-17.4 0-31.5 14.1-31.5 31.5v1c0 17.4 14.1 31.5 31.5 31.5h30v128h-30c-17.4 0-31.5 14.1-31.5 31.5v1c0 17.4 14.1 31.5 31.5 31.5h30v66.4c0 68.3 57.3 123.6 128 123.6h576c70.7 0 128-55.3 128-123.6V188.1c0-68.3-57.2-123.6-128-123.6z m64 769.2c0 34.1-28.7 61.8-64 61.8h-576c-35.4 0-64-27.7-64-61.8v-64.2h29c17.4 0 31.5-14.1 31.5-31.5v-1c0-17.4-14.1-31.5-31.5-31.5h-29v-128h29c17.4 0 31.5-14.1 31.5-31.5v-1c0-17.4-14.1-31.5-31.5-31.5h-29v-131h29c17.4 0 31.5-14.1 31.5-31.5v-1c0-17.4-14.1-31.5-31.5-31.5h-29V190.3c0-34.1 28.6-61.8 64-61.8h576c35.3 0 64 27.7 64 61.8v643.4zM711.6 577.2c-35.4-17.8-15.4-4.2-58.9-22.4s-58.2-24.1-58.2-24.1l-0.4-21.3s20.7-12.5 25.8-51.9c10.2 3 13.6-12 14.2-21.6 0.6-9.3 6-38.1-6.4-35.5 2.5-19.3-1.8-36.7-2.7-45.9-3.1-32.4-25.3-66.1-81.2-68.6-47.6 2.5-78.5 36.3-81.6 68.6-0.9 9.2-5.1 26.6-2.6 45.9-12.4-2.6-7.1 26.3-6.5 35.5 0.6 9.6 4 24.6 14.2 21.6 5.1 39.4 25.5 52 25.5 52l-0.4 21.5s-14.4 6.3-57.9 24.5-23.8 3.8-59.2 21.5c-56 28.1-56 105.4-56 105.4v0.1c0 11.7 9.4 21.2 21 21.2h406.4c11.6 0 21-9.5 21-21.2v-0.1c-0.2 0.2-0.2-77.1-56.1-105.2z" fill="#10c689" p-id="4544"></path></svg>