<?xml version="1.0" standalone="no"?><!DOCTYPE svg PUBLIC "-//W3C//DTD SVG 1.1//EN" "http://www.w3.org/Graphics/SVG/1.1/DTD/svg11.dtd"><svg t="1587393984232" class="icon" viewBox="0 0 1024 1024" version="1.1" xmlns="http://www.w3.org/2000/svg" p-id="17725" xmlns:xlink="http://www.w3.org/1999/xlink" width="200" height="200"><defs><style type="text/css"></style></defs><path d="M500.433 599.273h21.614c17.897 0 32.422 14.662 32.422 32.727v152.727c0 18.066-14.525 32.727-32.443 32.727h-21.614c-17.918 0-32.422-14.662-32.422-32.727v-152.727c0.022-18.066 14.525-32.727 32.443-32.727v0zM857.067 490.182v393.513c0 23.629-19.366 42.851-43.228 42.851h-605.196c-23.841 0-43.228-19.222-43.228-42.851v-393.513h691.653zM921.909 424.727h-821.337v458.967c0 59.826 48.372 108.306 108.070 108.306h605.196c59.698 0 108.070-48.48 108.070-108.306v-458.967zM835.453 424.727h-64.842v-65.454c0-147.186-121.752-261.818-259.37-261.818-141.010 0-259.37 119.454-259.37 261.818v65.454h-64.842v-65.454c0-178.451 147.43-327.273 324.212-327.273 174.556 0 324.212 142.756 324.212 327.273v65.454z" p-id="17726" fill="#10c689"></path></svg>