<?xml version="1.0" standalone="no"?><!DOCTYPE svg PUBLIC "-//W3C//DTD SVG 1.1//EN" "http://www.w3.org/Graphics/SVG/1.1/DTD/svg11.dtd"><svg t="1587258990659" class="icon" viewBox="0 0 1024 1024" version="1.1" xmlns="http://www.w3.org/2000/svg" p-id="4539" xmlns:xlink="http://www.w3.org/1999/xlink" width="200" height="200"><defs><style type="text/css"></style></defs><path d="M537 972.8c-138.7 0-400-208-400-405.3V194.1c0-5.3 2.7-8 5.3-13.3 2.7-2.7 8-5.3 13.3-5.3H177c61.3-2.7 122.7-16 181.3-37.3 53.3-21.3 106.7-48 154.7-80l13.3-8H537c2.7 0 8 0 10.7 2.7l13.3 8c48 34.7 101.3 61.3 154.7 82.7 58.7 21.3 120 34.7 181.3 37.3h21.3c5.3 0 8 2.7 13.3 5.3 5.3 2.7 5.3 8 5.3 13.3v373.3c0.1 194.6-261.2 400-399.9 400z m338.7-733.4c-61.3-5.3-122.7-18.7-181.3-40-53.3-21.3-106.7-48-157.3-77.3-50.7 32-101.3 58.7-157.3 77.3-58.7 21.3-117.3 37.3-181.3 40v328c0 154.7 226.7 341.3 338.7 341.3 80-13.3 154.7-50.7 210.7-109.3 72-56 117.3-141.3 128-232v-328z m-365.3 416c-8 8-16 10.7-26.7 10.7s-18.7-2.7-26.7-10.7L347.7 546.1c-13.3-13.3-13.3-37.3 0-50.7 13.3-13.3 37.3-13.3 50.7 0l82.7 85.3L691.8 370c13.3-13.3 37.3-13.3 50.7 0 13.3 13.3 13.3 37.3 0 50.7L510.4 655.4z m0 0" fill="#10c689" p-id="4540"></path></svg>